<svg xmlns="http://www.w3.org/2000/svg" viewBox="0 0 256 256" fill="none">
  <defs>
    <linearGradient id="bg" x1="0%" y1="0%" x2="100%" y2="100%">
      <stop offset="0%" style="stop-color:#7c3aed"/>
      <stop offset="50%" style="stop-color:#6d28d9"/>
      <stop offset="100%" style="stop-color:#4c1d95"/>
    </linearGradient>
  </defs>
  <!-- Background -->
  <rect width="256" height="256" rx="56" fill="url(#bg)"/>
  <!-- Gear/cog shape representing config -->
  <g transform="translate(128,120)">
    <path d="M0,-58 L7,-58 C9,-58 11,-56 11,-54 L13,-44 C17,-43 21,-41 25,-38 L34,-42 C36,-43 38,-43 40,-41 L45,-36 C47,-34 47,-32 46,-30 L42,-21 C44,-17 46,-13 47,-9 L57,-7 C59,-6 60,-4 60,-2 L60,5 C60,7 59,9 57,10 L47,12 C46,16 44,20 42,24 L46,33 C47,35 47,37 45,39 L40,44 C38,46 36,46 34,45 L25,41 C21,44 17,46 13,47 L11,57 C11,59 9,61 7,61 L-7,61 C-9,61 -11,59 -11,57 L-13,47 C-17,46 -21,44 -25,41 L-34,45 C-36,46 -38,46 -40,44 L-45,39 C-47,37 -47,35 -46,33 L-42,24 C-44,20 -46,16 -47,12 L-57,10 C-59,9 -60,7 -60,5 L-60,-2 C-60,-4 -59,-6 -57,-7 L-47,-9 C-46,-13 -44,-17 -42,-21 L-46,-30 C-47,-32 -47,-34 -45,-36 L-40,-41 C-38,-43 -36,-43 -34,-42 L-25,-38 C-21,-41 -17,-43 -13,-44 L-11,-54 C-11,-56 -9,-58 -7,-58 Z" fill="white" opacity="0.15"/>
    <!-- Inner circle of gear -->
    <circle cx="0" cy="1" r="24" fill="url(#bg)"/>
  </g>
  <!-- Stylized "J" letter in the center -->
  <g>
    <path d="M112,72 L148,72 C152,72 155,75 155,79 L155,83 C155,87 152,90 148,90 L138,90 L138,158 C138,172 130,184 116,184 L104,184 C100,184 97,181 97,177 L97,173 C97,169 100,166 104,166 L110,166 C114,166 118,162 118,158 L118,90 L112,90 C108,90 105,87 105,83 L105,79 C105,75 108,72 112,72 Z" fill="white"/>
  </g>
  <!-- Small sparkle/dot accent -->
  <circle cx="168" cy="76" r="8" fill="#a78bfa" opacity="0.8"/>
  <circle cx="172" cy="72" r="3" fill="white" opacity="0.9"/>
</svg>
