<svg xmlns="http://www.w3.org/2000/svg" viewBox="0 0 256 256" fill="none" stroke-linecap="round">
  <!-- 滑块1 -->
  <line x1="24" y1="68" x2="232" y2="68" stroke="#4d7c0f" stroke-width="17"/>
  <circle cx="76" cy="68" r="32" fill="white" stroke="#4d7c0f" stroke-width="11"/>
  <!-- 星爆1 -->
  <line x1="76" y1="44" x2="76" y2="92" stroke="#d4622a" stroke-width="6.5"/>
  <line x1="52" y1="68" x2="100" y2="68" stroke="#d4622a" stroke-width="6.5"/>
  <line x1="59" y1="51" x2="93" y2="85" stroke="#d4622a" stroke-width="6.5"/>
  <line x1="93" y1="51" x2="59" y2="85" stroke="#d4622a" stroke-width="6.5"/>
  <line x1="56" y1="58" x2="96" y2="78" stroke="#d4622a" stroke-width="5"/>
  <line x1="96" y1="58" x2="56" y2="78" stroke="#d4622a" stroke-width="5"/>
  <line x1="66" y1="46" x2="86" y2="90" stroke="#d4622a" stroke-width="4.5"/>
  <line x1="86" y1="46" x2="66" y2="90" stroke="#d4622a" stroke-width="4.5"/>
  <circle cx="76" cy="68" r="10" fill="#d4622a"/>

  <!-- 滑块2 -->
  <line x1="24" y1="128" x2="232" y2="128" stroke="#4d7c0f" stroke-width="17"/>
  <circle cx="163" cy="128" r="32" fill="white" stroke="#4d7c0f" stroke-width="11"/>
  <!-- 星爆2 -->
  <line x1="163" y1="104" x2="163" y2="152" stroke="#d4622a" stroke-width="6.5"/>
  <line x1="139" y1="128" x2="187" y2="128" stroke="#d4622a" stroke-width="6.5"/>
  <line x1="146" y1="111" x2="180" y2="145" stroke="#d4622a" stroke-width="6.5"/>
  <line x1="180" y1="111" x2="146" y2="145" stroke="#d4622a" stroke-width="6.5"/>
  <line x1="143" y1="118" x2="183" y2="138" stroke="#d4622a" stroke-width="5"/>
  <line x1="183" y1="118" x2="143" y2="138" stroke="#d4622a" stroke-width="5"/>
  <line x1="153" y1="106" x2="173" y2="150" stroke="#d4622a" stroke-width="4.5"/>
  <line x1="173" y1="106" x2="153" y2="150" stroke="#d4622a" stroke-width="4.5"/>
  <circle cx="163" cy="128" r="10" fill="#d4622a"/>

  <!-- 滑块3 -->
  <line x1="24" y1="188" x2="232" y2="188" stroke="#4d7c0f" stroke-width="17"/>
  <circle cx="110" cy="188" r="32" fill="white" stroke="#4d7c0f" stroke-width="11"/>
  <!-- 星爆3 -->
  <line x1="110" y1="164" x2="110" y2="212" stroke="#d4622a" stroke-width="6.5"/>
  <line x1="86" y1="188" x2="134" y2="188" stroke="#d4622a" stroke-width="6.5"/>
  <line x1="93" y1="171" x2="127" y2="205" stroke="#d4622a" stroke-width="6.5"/>
  <line x1="127" y1="171" x2="93" y2="205" stroke="#d4622a" stroke-width="6.5"/>
  <line x1="90" y1="178" x2="130" y2="198" stroke="#d4622a" stroke-width="5"/>
  <line x1="130" y1="178" x2="90" y2="198" stroke="#d4622a" stroke-width="5"/>
  <line x1="100" y1="166" x2="120" y2="210" stroke="#d4622a" stroke-width="4.5"/>
  <line x1="120" y1="166" x2="100" y2="210" stroke="#d4622a" stroke-width="4.5"/>
  <circle cx="110" cy="188" r="10" fill="#d4622a"/>
</svg>
